<svg xmlns="http://www.w3.org/2000/svg" xmlns:xlink="http://www.w3.org/1999/xlink" fill="none" version="1.1" width="20" height="20" viewBox="0 0 20 20"><defs><clipPath id="master_svg0_36_4466"><rect x="0" y="0" width="20" height="20" rx="0"/></clipPath></defs><g clip-path="url(#master_svg0_36_4466)"><g><path d="M1.115308,10.38846L5.34278,13.4148C5.4267,13.4749,5.53692,13.4824,5.62808,13.4342C5.71923,13.386,5.77591,13.2902,5.7748,13.1862L5.7748,7.13587C5.77591,7.0319,5.71923,6.93608,5.62808,6.88786C5.53692,6.83963,5.4267,6.84714,5.34278,6.9073L1.115308,9.93589C0.9623895,10.04717,0.9623895,10.27718,1.115308,10.38846ZM8.125070000000001,6.8L18.2084,6.80005Q19,6.80005,19,7.6001Q19,8.4001,18.2084,8.399899999999999L8.12508,8.40001Q7.33341,8.40001,7.33341,7.6Q7.33341,6.8,8.125070000000001,6.8ZM8.125070000000001,11.59999L18.2084,11.6001Q19,11.6001,19,12.3999Q19,13.1999,18.2084,13.2L8.12508,13.2Q7.33341,13.2,7.33341,12.4Q7.33341,11.59999,8.125070000000001,11.59999ZM1.791661,16.4L18.2083,16.399900000000002Q18.9999,16.399900000000002,18.9999,17.2Q18.9999,18,18.2083,18L1.791662,18Q1,18,1,17.2Q1,16.4,1.791661,16.4ZM1.791662,2L18.2083,2Q18.9999,2,18.9999,2.800049Q18.9999,3.60005,18.2083,3.6001000000000003L1.791662,3.60001Q1.000000709419,3.60001,1.000000709419,2.800005Q1.000000709419,2,1.791662,2Z" fill="#606266" fill-opacity="1"/></g></g></svg>
